<?xml version="1.0" encoding="UTF-8"?>
<svg id="Layer_1" xmlns="http://www.w3.org/2000/svg" version="1.1" viewBox="0 0 478.59 354.84">
  <!-- Generator: Adobe Illustrator 29.6.1, SVG Export Plug-In . SVG Version: 2.1.1 Build 9)  -->
  <defs>
    <style>
      .st0 {
        fill: #29a6b5;
      }

      .st1 {
        fill: #bd9946;
      }

      .st1, .st2, .st3, .st4, .st5, .st6, .st7 {
        stroke-width: 8.51px;
      }

      .st1, .st2, .st3, .st4, .st5, .st6, .st7, .st8 {
        stroke: #000;
        stroke-miterlimit: 10;
      }

      .st2 {
        fill: #f8eccf;
      }

      .st3 {
        fill: #f7eccf;
      }

      .st9 {
        fill: #27a9b8;
      }

      .st4 {
        fill: #851912;
      }

      .st10, .st8 {
        fill: #f53f3c;
      }

      .st11 {
        fill: #fb4f1b;
      }

      .st12 {
        fill: #31acbb;
      }

      .st5 {
        fill: none;
      }

      .st13 {
        fill: #fb5a18;
      }

      .st7 {
        fill: #f6eccf;
      }

      .st8 {
        stroke-width: 12.77px;
      }

      .st14 {
        fill: #75c03a;
      }
    </style>
  </defs>
  <g id="Layer_11">
    <g>
      <g>
        <path class="st0" d="M37.92,162.2c6.88,7.03,12.55,10.63,21.38,13.65-17.47,4.22-27.78,19.65-29.65,41.04C27.45,195.81,16.49,180.65,0,175.09c18.61-3.56,28.27-16.94,29.04-40.96,4.03,9.56,2.32,19.52,8.88,28.06h0Z"/>
        <path class="st13" d="M476.03,176.83c-17.27,2.62-22.08,21.34-26.48,38.95-1.63-21.3-11.69-36.86-29.2-40.07,18.66-3.07,27.41-18.37,29.65-40.64,1.43,21.79,9.57,36.2,28.59,40.02-1.34,1.02-1.79,1.33-2.57,1.73h.01Z"/>
        <path class="st0" d="M53.77,253.32c2.24,15.3,10.88,21.52,22.08,24.95-15.52,4.22-21.22,17.65-23.87,35.71-1.43-18.81-8.47-31.17-23.34-35.57,15.52-3.02,21.75-15.65,22.89-34.11,2.53,2.62,1.06,6.09,2.24,9.03h0Z"/>
        <path class="st0" d="M433.1,255.05c2.08,14.81,10.47,20.46,20.9,23.7-13.73,4.05-22.12,13.52-22.16,33.13-6.64-29.35-10.43-27.21-23.3-33.66,14.99-1.25,20.12-16.1,23.18-31.97.45,2.76.86,5.56,1.38,8.8Z"/>
        <path class="st12" d="M356.48,92.74c.9-3.42,1.67-6.4,2.57-10.01,2.24,9.56,5.87,15.43,13.16,18.81-6.15,3.34-10.92,9.69-12.95,17.88-2.2-8.94-6.44-14.23-13.4-18.37,4.28-1.16,8.31-2.8,10.63-8.32h-.01Z"/>
        <path class="st11" d="M334.77,62.24c-9.08,2.93-12.5,11.74-14.01,22.32-2.32-12.41-6.84-19.65-16.78-23.48,9.53-1.25,14.79-7.56,16.13-18.99,2.24,10.49,8.72,16.05,14.66,20.14h0Z"/>
      </g>
      <g>
        <g>
          <path class="st7" d="M114.66,199.38c.98-4.85,13.28-14.81,14.34-14.45.86.27,6.15,10.05,17.39,15.88,21.47,11.12,24.85,3.38,25.01,4.49.45,3.82,4.03,29.97,2.81,29.79-14.58,3.6-54.54-19.79-59.55-35.71h0Z"/>
          <path class="st3" d="M364.1,184.07c-9.69-18.81-31.16,9.93-24.4-32.5,1.47-10.14,41.22-1.47,47.29,24.95,14.01,54.7-25.42,99.48-64.89,86.62.45-2.93,7.41-17.56,8.55-22.68.65-2.98,16.05.44,23.67-5.43,13.2-10.45,17.84-36.02,9.78-50.96h0Z"/>
          <path class="st3" d="M297.26,320.33c-19.71-24.81-23.05-12.72,3.83-29.62,2.97-1.02,17.84,13.79,19.31,16.14,8.06,9.78-12.99,53.67-25.62,41.67-5.3-4.54-5.01-16.23,2.48-28.19h0Z"/>
          <path class="st3" d="M192.83,321.49c2.65,1.69,12.42-34.29,13.48-32.64,4.28,6.85,19.67,9.83,18.61,14.59-1.47,6.63-10.79,21.79-16.01,40.64-1.71,6.14-13.28,5.56-24.89,1.6-24.03-9.38-17.27-42.65,8.8-24.19h0Z"/>
          <path class="st3" d="M185.82,265.68c39.06,68.48,136.57,47.18,146.84-35.49,3.18-21.21,10.47-85.42,5.17-104.46-14.05-26.73-69.65-23.83-87.98-24.32-17.6.76-69.45-1.87-77.31,28.82-4.93,16.32-3.1,109.75,13.28,135.45h0Z"/>
          <path class="st2" d="M175.15,122.67c-2.73-29.39,164.8-26.19,161.22,3.11,2.77,29.39-164.76,26.19-161.22-3.11Z"/>
          <path class="st4" d="M186.31,133.61c5.62-18.28,138.16-16.19,138.08,2.09-2.44,11.7-138.65,11.38-138.08-2.09h0Z"/>
          <g>
            <path class="st6" d="M210.91,200.8c0-5.69,2.53-10.36,4.81-10.98,1.1-.27,4.2,3.42,4.68,7.83.45,4.05-1.18,9.25-2.4,10.27-3.1,2.62-7.09-4.05-7.09-7.11h0Z"/>
            <path class="st6" d="M282.03,199.02c-.69-9.34,10.39-13.43,10.1.18,0,11.52-11.81,13.65-10.1-.18Z"/>
            <path class="st6" d="M240.07,234.95c-1.26-2.05-2.89-6.27-3.05-9.47-.08-1.33-.37-3.42-.24-3.91.16-.62,1.51.18,1.79.22,2.73.76,7.86,3.11,11.65,3.74,8.64,1.42,10.88-1.16,12.59-1.82.33-.13,3.22-2.4,3.14-1.91-.37,1.6-1.3,9.16-3.46,12.63-2.77,4.36-7.25,6.45-11.53,6.49-3.5,0-8.11-1.51-10.88-5.96h-.01Z"/>
          </g>
          <g>
            <path class="st1" d="M173.31,136.05c.12-.31,0-.71-.33-.76-6.44-1.02-74.58-12.94-74.54-12.72,0,0,14.5,88.71,23.14,116.73.77,2.53,4.11,2.8,5.17.31,11.12-26.19,46.56-103.57,46.56-103.57h0Z"/>
            <g>
              <g>
                <path class="st8" d="M189.16,78.24c14.09,16.01,5.7,55.63-17.84,54.43-4.03-.84-10.71-2.49-18.21-4.36-11.98-2.67-36.21-8.09-36.29-8.36-2.08-5.6.45-24.99,2.77-36.55,1.26-7.2,3.79-14.9,6.8-22.32,3.18-8.36,6.44-14.5,9.78-19.92,3.38-5.87,6.68-10.81,9.37-14.19.33-.49.61-.93.94-1.42.12-.36.33-.67.57-.89.08-.13.16-.27.29-.4h.45c1.06-.4,2.61-.22,4.28.18,18.7,2.27,34.34,23.17,36.66,45.8-2.48-54.92-75.03-66.7-89.77-12.54-22.12,10.54-20,54.56,3.91,60.25,5.13,1.47,57.96,13.21,62.56,14.5,24.76,8.09,42.12-33.97,23.75-54.21h-.02Z"/>
                <path class="st8" d="M188.67,77.71c.16.18.33.36.49.58-.04-.04-.08-.13-.16-.18.08-2.62-.04-5.2-.29-7.83.08,2.36.12,4.85-.04,7.43h0Z"/>
              </g>
              <g>
                <g>
                  <path class="st10" d="M187.08,78.24c13.73,15.65,5.54,54.38-17.35,53.23-3.91-.8-10.43-2.45-17.68-4.27-11.65-2.58-35.19-7.92-35.31-8.18-2-5.47.45-24.46,2.69-35.71,1.26-7.07,3.67-14.59,6.64-21.83,3.1-8.14,6.23-14.19,9.49-19.48,3.26-5.74,6.48-10.58,9.12-13.87.29-.44.61-.93.9-1.42.12-.36.33-.67.57-.89.08-.13.16-.27.24-.4h.41c1.06-.4,2.53-.22,4.15.18,18.21,2.22,33.4,22.68,35.64,44.78-2.32-53.63-72.87-65.19-87.21-12.23-21.51,10.27-19.43,53.36,3.79,58.92,4.97,1.42,56.37,12.9,60.81,14.19,24.11,7.92,41.02-33.22,23.09-53.01h.01Z"/>
                  <path class="st10" d="M186.63,77.71l.49.53s-.08-.13-.16-.18c.08-2.53-.04-5.11-.29-7.65.08,2.36.12,4.76-.04,7.29h0Z"/>
                </g>
                <path class="st14" d="M119.43,83.76c8.51-34.6,17.64-43.45,27.49-59.19,22.69-1.16,42.24,26.46,41.18,53.72,14.17,15.88,7.17,54.61-17.56,54.61-10.88-2.27-41.83-10.67-53.32-12.72-2.4-4.85-.12-24.55,2.2-36.42h0Z"/>
                <path class="st9" d="M119.22,84.07c1.63-9.25,6.11-22.1,11.45-33.13,6.88-14.19,14.74-25.75,15.44-26.95.04-.04.08-.04.12-.04.16,0,1.47.27,2,.36.2.04,2.85.36,2.93.36s2.69.44,4.85.98c.45.13,1.67.53,1.67.53.04.09.16,1.25.2,1.47,2,17.16,3.46,40.78,3.3,57.99-.24,5.96-.73,44.82-5.25,43.85-9.73-2.18-39.43-8.94-39.51-9.2-2-5.65.53-24.68,2.81-36.2v-.02h0Z"/>
              </g>
            </g>
          </g>
          <path class="st7" d="M98.78,191.82c.86-12.54-1.18-19.79,9.9-21.52,11.53-1.82,23.34,6.05,22.12,20.72-.86,10.09-19.47,16.94-21.47,25.08-2.61,5.29-10.67-22.23-10.55-24.28h0Z"/>
        </g>
        <path class="st5" d="M225.9,3.72c5.54,3.07,13.36,11.52,11.45,27.57-1.71,14.27-10.55,9.07-11.73,26.41-.94,13.96,6.52,17.03,7.05,18.81"/>
        <path class="st5" d="M261.95,5.58c5.54,3.07,13.36,11.52,11.45,27.57-1.71,14.27-10.55,9.07-11.73,26.41-.94,13.96,6.52,17.03,7.05,18.81"/>
      </g>
    </g>
  </g>
</svg>