<?xml version="1.0" encoding="UTF-8"?>
<svg id="Layer_2" data-name="Layer 2" xmlns="http://www.w3.org/2000/svg" viewBox="0 0 512 512">
  <defs>
    <style>
      .cls-1 {
        fill: #802928;
      }

      .cls-2 {
        fill: #f1d4a8;
      }

      .cls-3 {
        fill: #e76331;
        font-size: 75.94px;
      }

      .cls-3, .cls-4 {
        font-family: SourceSansPro-Bold, 'Source Sans Pro';
        font-weight: 700;
      }

      .cls-5 {
        fill: #231f20;
      }

      .cls-6 {
        fill: #f2d4a7;
      }

      .cls-7 {
        fill: #e44a4d;
      }

      .cls-8 {
        fill: #f9c562;
      }

      .cls-9 {
        fill: #00a5c3;
      }

      .cls-10 {
        fill: #6e4023;
      }

      .cls-11 {
        fill: #efd4a8;
      }

      .cls-12 {
        fill: #00a9ca;
      }

      .cls-13 {
        fill: #ea5b32;
      }

      .cls-4 {
        fill: #e46232;
        font-size: 46.34px;
      }

      .cls-14 {
        fill: #f1d4a7;
      }

      .cls-15 {
        fill: #b99554;
      }

      .cls-16 {
        fill: #81b946;
      }

      .cls-17 {
        fill: #00a7c7;
      }

      .cls-18 {
        fill: #f6e4c8;
      }

      .cls-19 {
        fill: #eb642c;
      }
    </style>
  </defs>
  <g id="Layer_1" data-name="Layer 1">
    <g>
      <g>
        <ellipse class="cls-8" cx="244" cy="238" rx="223" ry="221"/>
        <path class="cls-10" d="M244,460c-59.83,0-116.08-23.09-158.39-65.02-42.31-41.93-65.61-97.68-65.61-156.98s23.3-115.05,65.61-156.98C127.92,39.09,184.17,16,244,16s116.08,23.09,158.39,65.02c42.31,41.93,65.61,97.68,65.61,156.98s-23.3,115.05-65.61,156.98c-42.31,41.93-98.56,65.02-158.39,65.02ZM244,18c-59.3,0-115.05,22.89-156.98,64.44C45.09,123.99,22,179.24,22,238s23.09,114.01,65.02,155.56c41.93,41.55,97.68,64.44,156.98,64.44s115.05-22.88,156.98-64.44c41.93-41.55,65.02-96.8,65.02-155.56s-23.09-114.01-65.02-155.56c-41.93-41.55-97.68-64.44-156.98-64.44Z"/>
      </g>
      <g>
        <ellipse class="cls-18" cx="244" cy="238" rx="148.67" ry="147.33"/>
        <path class="cls-10" d="M244,386.33c-82.53,0-149.67-66.54-149.67-148.33S161.47,89.67,244,89.67s149.67,66.54,149.67,148.33-67.14,148.33-149.67,148.33ZM244,91.67c-81.42,0-147.67,65.64-147.67,146.33s66.24,146.33,147.67,146.33,147.67-65.64,147.67-146.33-66.24-146.33-147.67-146.33Z"/>
      </g>
      <g>
        <g>
          <path class="cls-9" d="M67.28,251.12c5.07,4.74,9.24,7.18,15.74,9.21-12.88,2.84-20.45,13.25-21.83,27.69-1.61-14.23-9.69-24.46-21.83-28.19,13.7-2.4,20.81-11.43,21.39-27.63,2.96,6.45,1.71,13.17,6.53,18.92Z"/>
          <path class="cls-19" d="M422.83,342.56c-12.73,1.76-16.27,14.4-19.51,26.28-1.2-14.37-8.6-24.86-21.51-27.03,13.74-2.06,20.2-12.39,21.84-27.42,1.04,14.7,7.06,24.43,21.07,27-1.02.68-1.33.89-1.9,1.17Z"/>
          <path class="cls-9" d="M426.07,258.59c1.54,9.99,7.7,13.81,15.4,15.98-10.12,2.73-16.3,9.13-16.32,22.36-4.89-19.81-7.67-18.37-17.16-22.72,11.05-.85,14.83-10.87,17.06-21.58.32,1.89.63,3.77,1.02,5.96Z"/>
          <path class="cls-12" d="M327.75,180.52c.66-2.3,1.22-4.33,1.9-6.76,1.64,6.44,4.33,10.4,9.68,12.68-4.54,2.24-8.03,6.53-9.54,12.06-1.62-6.02-4.75-9.61-9.88-12.39,3.16-.74,6.12-1.84,7.84-5.59Z"/>
          <path class="cls-13" d="M306.99,134.78c-6.7,1.97-9.2,7.92-10.31,15.06-1.7-8.36-5.05-13.25-12.35-15.84,7.01-.85,10.88-5.1,11.89-12.8,1.62,7.06,6.39,10.8,10.77,13.58Z"/>
          <path class="cls-19" d="M107.71,342.56c-12.73,1.76-16.27,14.4-19.51,26.28-1.2-14.37-8.6-24.86-21.51-27.03,13.74-2.06,20.2-12.39,21.84-27.42,1.04,14.7,7.06,24.43,21.07,27-1.02.68-1.33.89-1.9,1.17Z"/>
        </g>
        <g>
          <g>
            <g>
              <path class="cls-11" d="M146.4,274.92c.72-3.27,9.78-9.98,10.55-9.75.62.18,4.53,6.77,12.82,10.71,15.8,7.51,18.31,2.29,18.41,3.02.33,2.58,2.98,20.21,2.08,20.1-10.75,2.44-40.17-13.32-43.85-24.07Z"/>
              <path class="cls-5" d="M187.7,302.25c-13.98,0-40.3-15.16-44.14-26.35l-.27-.8.18-.82c.98-4.47,9.38-10.34,10.88-11.23.96-.57,2.09-1.15,3.43-.76,1.03.3,1.57.95,2.47,2.03,1.64,1.99,5.06,6.12,10.81,8.85,7.23,3.44,12.92,4.65,15.22,3.24,1.09-.67,2.16-.76,3.16-.28l1.47.7.24,1.69c.05.4.16,1.18.3,2.19,2.63,18.71,2.29,19.07.99,20.37l-1.04,1.06-1.01-.11c-.83.15-1.73.22-2.69.22ZM149.69,274.99c4.36,8.38,27.17,21.1,37.67,21.28-.21-2.48-.76-6.98-1.66-13.45-4.24.65-9.91-.76-17.21-4.23-6.23-2.96-10.21-7.29-12.23-9.7-2.42,1.65-5.49,4.66-6.56,6.1Z"/>
            </g>
            <g>
              <path class="cls-11" d="M330.1,264.62c-9.87-12.91-22.95,6.68-17.98-21.94,1.07-6.84,30.35-.99,34.84,16.84,10.31,36.91-18.73,67.11-47.8,58.44.33-1.99,5.47-11.86,6.29-15.3.48-2.01,11.83.3,17.43-3.66,9.75-7.06,13.16-24.32,7.23-34.38Z"/>
              <path class="cls-5" d="M309.27,322.46c-3.66,0-7.35-.53-10.98-1.61l-2.54-.76.43-2.61c.21-1.26,1.14-3.35,2.91-7.25,1.36-2.99,3.05-6.71,3.42-8.26.73-3.06,3.92-3.18,7.96-3.33,3.44-.13,8.15-.31,10.66-2.08,8.21-5.95,11.51-21.44,6.46-30.25-3.03-3.87-6.21-3.8-9.58-3.73-2.71.05-5.78.12-7.93-2.4-2.43-2.83-2.69-7.88-.93-18,.23-1.44,1.49-4.95,8.09-5.25,9.61-.43,28.75,6.5,32.61,21.87,5.43,19.43.85,38.77-12.28,51.67-7.96,7.82-18.03,11.99-28.31,11.99ZM303.15,315.87c10.73,2.07,21.83-1.43,30.23-9.68,11.54-11.34,15.54-28.49,10.69-45.85-2.14-8.49-10.9-13.91-18.4-16.18-5.74-1.73-9.66-1.36-10.63-.75-1.76,10.29-.75,12.44-.39,12.85.31.36,1.95.33,3.26.31,3.86-.07,9.67-.19,14.58,6.23l.2.3c6.78,11.5,2.79,30.49-8.05,38.34-4,2.82-9.74,3.04-13.92,3.2-.89.03-2,.08-2.78.15-.74,2.14-2.07,5.07-3.37,7.93-.45.98-.97,2.13-1.42,3.15ZM315.08,243.15s0,.01,0,.02c0,0,0-.01,0-.02Z"/>
            </g>
            <g>
              <path class="cls-11" d="M280.89,356.54c-14.52-16.75-16.97-8.57,2.81-19.97,2.2-.7,13.15,9.31,14.21,10.88,5.95,6.59-9.56,36.21-18.86,28.1-3.88-3.05-3.67-10.93,1.85-19.01Z"/>
              <path class="cls-5" d="M282.52,379.94c-1.94,0-3.78-.69-5.4-2.08-5.01-4.01-4.92-12.6.02-21.01-2.99-3.29-5.37-5.43-7.02-6.91-2.41-2.16-4-3.59-3.66-5.9.35-2.35,2.25-3.25,5.72-4.88,2.35-1.11,5.58-2.63,10.01-5.18l.28-.16.31-.1c1.91-.6,4.22.04,10.35,5.14,2.33,1.93,5.95,5.2,7.1,6.73,5.3,6.22-1.31,22.32-8.53,29.66-3.05,3.11-6.25,4.7-9.2,4.7ZM273.7,345.08c.15.13.29.27.44.4,2.02,1.82,5.08,4.57,9.02,9.11l1.51,1.75-1.3,1.91c-4.64,6.79-4.89,13.05-2.47,14.96l.12.1c1.51,1.31,3.67.56,6.43-2.25,6.65-6.76,10.34-19.24,8.23-21.57l-.27-.34c-2.03-2.7-9.02-8.11-11.24-9.36-4.14,2.34-7.29,3.82-9.43,4.83-.35.17-.71.33-1.04.49ZM283.64,339.5h0Z"/>
            </g>
            <g>
              <path class="cls-11" d="M203.96,357.32c1.95,1.15,9.16-23.14,9.92-22.02,3.16,4.63,14.49,6.63,13.7,9.84-1.09,4.46-7.94,14.69-11.78,27.42-1.25,4.15-9.79,3.75-18.32,1.07-17.7-6.33-12.74-28.77,6.47-16.32Z"/>
              <path class="cls-5" d="M208.86,378.67c-4.68,0-9.72-1.37-12.27-2.17l-.11-.04c-8.71-3.12-12.35-9.48-12.85-14.39-.44-4.24,1.25-7.96,4.52-9.96,2.34-1.43,7.27-3,15.15,1.31,1.29-2.73,3.21-7.98,4.35-11.12,3.15-8.63,3.56-9.74,5.8-10.02l1.82-.23,1.1,1.55c1.07,1.57,4.26,3.07,6.82,4.28,4.08,1.93,8.31,3.92,7.31,7.96-.52,2.12-1.88,4.83-3.76,8.58-2.6,5.18-5.83,11.62-8.06,18.99-.51,1.68-1.67,3.04-3.35,3.93-1.81.96-4.09,1.31-6.46,1.31ZM198.45,370.79c7.1,2.23,12.27,2.22,14.07,1.26.17-.09.37-.22.41-.36,2.37-7.87,5.88-14.85,8.44-19.95,1.31-2.6,2.47-4.92,3.03-6.46-.86-.58-2.57-1.39-3.78-1.96-1.93-.91-4.01-1.89-5.81-3.11-.49,1.3-1.04,2.8-1.54,4.15-4.57,12.5-5.84,15.01-8.04,15.79-.94.34-1.96.24-2.8-.26l-.11-.07c-4.66-3.02-8.79-3.99-11.05-2.61-1.26.77-1.88,2.31-1.68,4.23.32,3.09,2.81,7.15,8.85,9.34Z"/>
            </g>
            <g>
              <path class="cls-2" d="M198.8,319.66c28.77,46.21,100.58,31.84,108.16-23.93,2.35-14.32,7.7-57.63,3.82-70.47-10.34-18.03-51.3-16.08-64.79-16.4-12.95.5-51.15-1.25-56.95,19.44-3.65,11-2.3,74.03,9.76,91.36Z"/>
              <path class="cls-5" d="M315.09,237.17c-.1-5.28-.54-9.76-1.45-12.77l-.1-.33-.17-.3c-.34-.59-.7-1.16-1.1-1.71-2.14-3.02-5.04-5.48-8.45-7.47-14.54-8.49-38.4-8.61-52.65-8.67-1.97-.01-3.7-.02-5.12-.06h-.18c-1.34.06-2.94.08-4.75.11-8.07.14-19.41.34-29.77,2.64-1.73.39-3.44.84-5.09,1.35-1.45.45-2.86.95-4.22,1.52-6.08,2.5-11.18,6.18-14.1,11.6-.48.87-.9,1.79-1.25,2.76-.19.52-.37,1.05-.52,1.59-.07.23-.15.48-.22.74-.22.83-.42,1.81-.61,2.94-.14.9-.27,1.89-.39,2.97-.02.19-.04.39-.06.59-.01.1-.02.2-.03.3-.23,2.28-.4,4.89-.51,7.75h0c-.08,2.2-.13,4.55-.13,7h0c-.04,8.2.34,17.65,1.2,27.05.09,1.02.19,2.03.29,3.04.7,6.73,1.64,13.37,2.86,19.41.2,1.01.41,2,.63,2.97,1.81,8.07,4.15,14.87,7.09,19.12,3.72,5.96,8.28,11.1,13.47,15.32.8.67,1.63,1.31,2.47,1.93h.01c.83.61,1.68,1.2,2.54,1.75,3.03,2.01,6.23,3.72,9.56,5.13.92.39,1.85.76,2.79,1.1.93.35,1.88.68,2.84.97,5.83,1.82,11.97,2.77,18.24,2.77,4.39,0,8.85-.47,13.32-1.42,2.03-.43,4.01-.95,5.94-1.56,1.04-.32,2.07-.68,3.08-1.05,5.81-2.15,11.13-5.08,15.87-8.67.84-.64,1.66-1.3,2.46-1.99,4.72-4.01,8.79-8.73,12.09-14.04.55-.9,1.08-1.81,1.59-2.74.5-.92.99-1.85,1.45-2.79,1.72-3.55,3.12-7.32,4.18-11.26.28-1.01.52-2.02.74-3.05.23-1,.43-2.01.61-3.03.13-.82.26-1.63.37-2.46.87-5.31,2.83-19.32,4.08-33.87.08-1.01.17-2.01.24-3.02.09-1.12.18-2.24.25-3.35.3-4.32.52-8.59.61-12.59h0c.01-1.08.03-2.13.03-3.16s0-2.07-.03-3.06ZM303,300.8h0c-1.47,6.56-3.86,12.28-6.9,17.23h0c-8.79,14.31-22.95,22.2-35.83,24.96-11.25,2.41-22.46,1.37-32.46-2.62-.01-.01-.02-.01-.03-.01-4.99-2-9.67-4.72-13.9-8.13h-.01c-4.83-3.87-9.08-8.62-12.53-14.15l-.08-.13c-9.64-13.85-12.22-61.27-10.56-81.25.05-.66.11-1.29.18-1.88.17-1.64.38-3.04.62-4.16.07-.32.15-.62.22-.89.05-.18.11-.36.16-.52l.05-.13c.16-.57.35-1.11.57-1.64.42-1.05.96-2.02,1.61-2.92.16-.24.33-.46.52-.69.94-1.2,2.07-2.27,3.35-3.23,3.1-2.35,7.07-4.05,11.41-5.28h.02c.34-.1.69-.2,1.03-.28,10.49-2.76,22.93-2.97,30.78-3.11,1.82-.03,3.43-.06,4.78-.11,1.44.04,3.17.05,5.14.06,12.74.06,36.6.17,49.73,7.89.02.01.03.02.04.02,2.32,1.37,4.3,2.97,5.83,4.86h0c.46.57.88,1.16,1.25,1.77.2.71.37,1.55.51,2.5.17,1.11.31,2.37.42,3.78.19,2.69.26,5.93.2,9.64v.02c-.07,4.2-.29,9.02-.68,14.37h0c-.07.97-.15,1.94-.23,2.93-1.07,13.31-2.94,27.75-4.23,35.63-.26,1.89-.59,3.7-.98,5.47Z"/>
            </g>
            <g>
              <path class="cls-14" d="M190.96,223.2c-2.02-19.83,121.38-17.67,118.75,2.09,2.02,19.83-121.38,17.66-118.75-2.09Z"/>
              <path class="cls-5" d="M312.27,222.06c-.64-1.78-2.07-3.72-4.91-5.57-1.02-.67-2.21-1.3-3.54-1.9-18.4-8.33-64.62-10.48-92.48-5.64-1.77.31-3.47.64-5.08,1.01-1.45.32-2.83.68-4.13,1.05-3.49,1-6.41,2.17-8.61,3.51-4.74,2.89-5.69,6.18-5.58,8.56v.08c-.07.83-.02,1.79.29,2.81.19.65.48,1.32.91,2.01.15.25.33.51.53.76.47.64,1.08,1.29,1.83,1.92.33.29.68.57,1.07.85.23.16.47.33.72.49.78.51,1.65,1,2.6,1.47.78.38,1.62.75,2.51,1.1t.02.01c3.75,1.51,8.45,2.8,13.79,3.85.02,0,.04.01.07.01,12.15,2.41,27.57,3.65,42.62,3.65,22.02,0,43.24-2.64,52.24-8.12.67-.41,1.26-.82,1.78-1.23,1.25-1.01,2.12-2.03,2.71-3.03.93-1.59,1.15-3.11,1.08-4.37.08-.96,0-2.08-.44-3.28ZM306.73,224.89l-.05.35.04.35c.12,1.25-1.4,2.46-2.71,3.25-.26.16-.54.32-.83.47-.81.44-1.74.86-2.76,1.25h-.01c-9.7,3.78-28.56,5.91-50.2,5.53-14.7-.26-28.09-1.62-38.19-3.75-.01-.01-.03-.01-.04-.01-3.06-.65-5.81-1.37-8.2-2.15-.63-.2-1.23-.41-1.8-.62s-1.12-.42-1.64-.64c0-.01,0,0,0,0-1.08-.46-2.04-.92-2.88-1.41-.31-.17-.6-.35-.88-.53-.97-.64-2.05-1.5-2.46-2.42-.05-.09-.09-.18-.12-.27-.07-.23-.09-.46-.06-.69l.04-.35-.03-.35c-.13-1.25,1.4-2.46,2.7-3.25.85-.52,1.84-1.01,2.98-1.47,2.58-1.08,5.89-2.02,9.77-2.82h.02c.33-.07.66-.14,1-.2,9.22-1.79,21.51-2.8,35.15-2.8,1.61,0,3.24.01,4.89.04,21.91.38,40.92,3.23,50.42,7.41.02.01.03.02.04.02,1.22.54,2.28,1.1,3.17,1.68,1.24.81,2.65,1.99,2.66,3.18h0c0,.08,0,.14-.01.2Z"/>
            </g>
            <g>
              <path class="cls-1" d="M199.15,230.56c4.13-12.32,101.77-10.91,101.69,1.4-1.78,7.9-102.08,7.7-101.69-1.4Z"/>
              <path class="cls-5" d="M252.66,240.65c-14.88,0-29.42-.74-39.51-2.09-12.41-1.66-17.18-3.94-16.99-8.13l.02-.42.13-.4c.69-2.08,2.81-8.39,35.71-10.21,17.97-.99,38.57-.13,52.48,2.19,13.41,2.23,19.37,5.44,19.34,10.39v.32s-.07.31-.07.31c-.52,2.31-1.49,6.6-36.58,7.79-4.78.16-9.67.24-14.53.24ZM203.32,230.42c4.97,1.87,20.65,4.05,46.6,4.22,25.69.16,41.82-1.77,46.9-3.44-5.21-3.25-27.24-6.86-56.79-6.11-22.15.56-33.1,3.36-36.71,5.34Z"/>
            </g>
            <g>
              <g>
                <path class="cls-5" d="M217.3,275.89c0-3.83,1.86-7,3.54-7.41.8-.19,3.09,2.31,3.45,5.27.33,2.72-.86,6.25-1.77,6.94-2.29,1.76-5.23-2.72-5.23-4.81Z"/>
                <path class="cls-5" d="M221.41,284.11c-.76,0-1.54-.19-2.31-.56-2.83-1.39-4.81-5.16-4.81-7.66,0-5,2.57-9.53,5.84-10.32.72-.17,1.84-.19,3.13.7,1.7,1.18,3.62,4.01,4,7.13.39,3.21-.77,8.03-2.91,9.68-.89.68-1.9,1.03-2.94,1.03ZM220.3,275.86c.04.36.32.94.65,1.43.27-.93.49-2.16.37-3.17-.06-.5-.22-.98-.41-1.4-.33.79-.6,1.87-.6,3.15Z"/>
              </g>
              <g>
                <path class="cls-5" d="M269.65,274.7c-.52-6.3,7.64-9.05,7.43.13,0,7.75-8.69,9.19-7.43-.13Z"/>
                <path class="cls-5" d="M272.67,284.18c-1.15,0-2.27-.34-3.24-1.02-1.32-.93-3.41-3.27-2.79-8.55-.15-3.18,1.23-6.08,3.67-7.65,1.97-1.27,4.29-1.39,6.19-.32,1.39.78,3.71,2.89,3.59,8.26,0,3.8-1.74,7.1-4.55,8.56-.93.48-1.91.72-2.87.72ZM273.63,271.96c-.38.2-1.1,1.03-.98,2.49l.03.32-.04.32c-.23,1.73,0,2.66.18,3.02.43-.24,1.28-1.2,1.28-3.29.04-1.71-.27-2.56-.46-2.87Z"/>
              </g>
              <g>
                <path class="cls-5" d="M238.77,298.93c-.94-1.39-2.12-4.23-2.25-6.38-.05-.91-.26-2.31-.17-2.65.11-.41,1.1.11,1.31.16,2,.5,5.79,2.11,8.57,2.52,6.37.95,8.01-.77,9.26-1.23.25-.09,2.38-1.62,2.3-1.29-.26,1.07-.95,6.18-2.56,8.51-2.03,2.95-5.34,4.36-8.5,4.37-2.53,0-5.93-1.01-7.96-4.02Z"/>
                <path class="cls-5" d="M246.71,305.94c-4.27,0-8.17-1.99-10.43-5.34h0c-1.22-1.8-2.6-5.18-2.76-7.88-.02-.29-.05-.63-.09-.96-.11-1.14-.19-1.89,0-2.64.24-.89.84-1.63,1.66-2.04,1.42-.71,2.78-.17,3.44.1.82.22,1.76.54,2.85.91,1.77.6,3.78,1.29,5.27,1.51,4.31.64,5.78-.1,6.75-.6.24-.12.5-.25.77-.37.1-.07.24-.16.39-.25,1.56-1.02,3.17-2.07,4.93-.81l1.66,1.18-.47,2.02c-.04.17-.09.45-.16.81-.41,2.19-1.17,6.27-2.85,8.7-2.44,3.54-6.54,5.66-10.97,5.67h-.02ZM239.79,293.89c.34,1.24.94,2.59,1.46,3.36h0c1.34,1.99,3.7,2.7,5.46,2.7h.01c2.46,0,4.72-1.15,6.04-3.07.25-.36.48-.87.68-1.45-1.68.43-4.09.66-7.66.12-1.92-.29-4.06-1-5.99-1.65ZM254.45,288.53s-.07.03-.12.05c.04-.02.08-.03.12-.05ZM238.38,287.15s.09.02.13.03c-.04-.01-.09-.02-.13-.03Z"/>
              </g>
            </g>
            <g>
              <g>
                <path class="cls-15" d="M189.58,232.23c.1-.21,0-.48-.23-.51-4.74-.68-54.92-8.73-54.89-8.59,0,0,10.68,59.85,17.03,78.76.58,1.72,3.02,1.89,3.8.2,8.18-17.69,34.29-69.87,34.29-69.87Z"/>
                <path class="cls-5" d="M167.07,270.84c-.44.91-.89,1.82-1.34,2.72.8.54,1.66,1.08,2.58,1.57.44-.89.88-1.8,1.33-2.7.46.26.93.51,1.42.74.43.21.85.4,1.27.58,4.13-8.4,8.38-16.97,11.89-24.02h0c0-2.46.05-4.81.13-7h0c.11-2.87.28-5.48.51-7.76-3.45,6.92-10.76,21.6-17.79,35.87ZM192.57,231.51c-.05-.35-.17-.71-.34-1.03-.14-.26-.31-.5-.51-.71-.51-.55-1.19-.91-1.94-1.01-.03,0-.07-.01-.11-.02-.19-.02-.43-.06-.73-.1-.71-.11-1.73-.27-2.99-.47-4.33-.68-11.51-1.82-18.98-3-7.54-1.2-15.54-2.46-21.66-3.42-3.06-.48-5.65-.89-7.49-1.17-3.92-.6-4.42-.67-5.52.47l-1.06,1.1.04.22.23,1.29c.2,1.14,2.55,14.3,5.65,29.93.2,1.02.41,2.04.62,3.08.24,1.22.49,2.44.74,3.67,1.38,6.77,2.85,13.74,4.31,20.2.27,1.19.54,2.36.81,3.51.33,1.45.67,2.87,1,4.25,1.42,5.84,2.79,10.92,4.01,14.55.66,1.96,2.43,3.3,4.51,3.42.1,0,.19.01.29.01,1.96,0,3.74-1.13,4.57-2.92,1.19-2.56,2.76-5.87,4.58-9.65.43-.89.88-1.82,1.34-2.77.43-.9.88-1.83,1.33-2.77,1.41-2.87,2.89-5.91,4.41-9.02.44-.89.88-1.79,1.32-2.7.45-.89.89-1.8,1.33-2.7,4.13-8.4,8.38-16.97,11.89-24.02h0c1.14-2.31,2.2-4.44,3.15-6.36,1.36-2.72,2.5-5,3.33-6.67.41-.83.75-1.5,1-2.01.35-.69.54-1.08.56-1.12l.02-.02c.31-.64.41-1.35.29-2.04ZM184.86,234.97c-3.45,6.92-10.76,21.6-17.79,35.87-.44.91-.89,1.82-1.34,2.72-.44.91-.89,1.82-1.33,2.72-1.47,2.99-2.89,5.91-4.24,8.68-.46.95-.91,1.88-1.35,2.78-.46.95-.91,1.87-1.34,2.77-1.46,3.03-2.78,5.79-3.87,8.12-1.14-3.74-2.39-8.61-3.68-14.07-.14-.58-.27-1.17-.41-1.76-.25-1.05-.49-2.12-.74-3.2-.06-.29-.13-.58-.19-.87-.18-.76-.35-1.53-.52-2.31-.24-1.09-.48-2.19-.72-3.31-.27-1.22-.53-2.45-.8-3.69-.79-3.75-1.58-7.56-2.34-11.3-.2-.99-.4-1.99-.6-2.97-.2-1-.39-2-.59-2.98-2.13-10.73-3.91-20.28-4.85-25.47,6.04.94,17.86,2.81,27.87,4.4,3.32.52,6.49,1.02,9.37,1.47.02,0,.03.01.05.01,3.79.6,7.08,1.12,9.5,1.5.11.02.22.03.33.05-.09.18-.18.37-.28.56-.04.09-.09.18-.14.28Z"/>
              </g>
              <g>
                <path class="cls-5" d="M204.7,193.62c3.36-45.81-60.62-57.25-73.17-14.97-18.05,7.87-16.31,40.83,3.18,45.07,4.17,1.08,47.28,9.88,51.01,10.85,20.41,6.12,34.66-25.99,18.98-40.95Z"/>
                <g>
                  <g>
                    <path class="cls-7" d="M199.91,193.76c9.87,10.67,3.83,36.51-12.95,35.74-2.87-.55-7.68-1.64-13.02-2.87-8.57-1.75-25.92-5.34-26-5.51-1.47-3.68.33-16.49,1.99-24.1.92-4.76,2.7-9.83,4.88-14.72,2.27-5.5,4.6-9.56,7-13.15,2.41-3.87,4.77-7.13,6.72-9.37.22-.31.45-.63.67-.95.09-.24.23-.44.41-.59.06-.09.13-.18.19-.28.1,0,.21,0,.31,0,.77-.27,1.87-.16,3.07.12,13.41,1.5,24.63,15.32,26.27,30.26-1.72-36.27-53.75-44.05-64.31-8.32-15.85,6.94-14.32,36.01,2.79,39.75,3.66.95,41.52,8.71,44.8,9.56,17.68,5.33,30.08-22.17,17.18-35.57Z"/>
                    <path class="cls-7" d="M199.4,193.22c.18.17.34.36.52.54-.09-.1-.18-.21-.27-.31.07-1.71,0-3.42-.18-5.12.07,1.58.06,3.2-.06,4.88Z"/>
                  </g>
                  <path class="cls-16" d="M149.89,197.28c6.27-23.34,12.98-29.31,20.24-39.94,16.7-.78,31.11,17.84,30.32,36.25,10.43,10.7,5.29,36.85-12.92,36.85-8.02-1.53-30.8-7.21-39.27-8.58-1.76-3.28-.07-16.56,1.63-24.58Z"/>
                  <path class="cls-17" d="M149.74,197.5c1.2-6.24,4.49-14.9,8.44-22.36,5.06-9.56,10.87-17.38,11.38-18.17.02-.04.05-.02.1-.02.12,0,1.08.17,1.47.23.16.03,2.11.23,2.15.23.06,0,1.99.29,3.56.67.34.08,1.23.35,1.24.36.04.05.13.83.15,1,1.47,11.57,2.55,27.51,2.44,39.11-.17,4.02-.55,30.24-3.86,29.57-7.18-1.46-29.03-6.02-29.11-6.22-1.5-3.76.36-16.61,2.05-24.4Z"/>
                </g>
              </g>
            </g>
            <g>
              <path class="cls-6" d="M134.7,269.82c.64-8.47-.88-13.36,7.29-14.53,8.5-1.22,17.2,4.08,16.28,13.98-.63,6.8-14.34,11.44-15.81,16.93-1.91,3.59-7.87-14.98-7.76-16.38Z"/>
              <path class="cls-5" d="M141.87,289.67c-.33,0-.66-.05-1-.14-1.53-.44-3.28-1.58-6.41-10.04-.12-.32-2.91-7.88-2.75-9.89.11-1.39.15-2.68.19-3.92.2-5.91.41-12.02,9.66-13.35,5.7-.82,11.36.85,15.15,4.46,3.39,3.23,5.01,7.77,4.54,12.77-.47,5.06-5.43,8.65-9.81,11.82-2.54,1.84-5.7,4.13-6.09,5.6l-.09.33-.16.3c-.69,1.3-1.92,2.06-3.24,2.06ZM137.71,269.81c.3,1.84,2.4,8.12,4.08,11.79,1.61-1.79,3.84-3.41,6.14-5.08,3.18-2.3,7.14-5.17,7.35-7.52.3-3.18-.64-5.9-2.7-7.87-2.47-2.35-6.27-3.42-10.17-2.87-4.12.59-4.3,1.41-4.52,7.61-.04,1.18-.09,2.5-.19,3.93ZM137.69,270.05s0,0,0,0h0s0,0,0,0Z"/>
            </g>
          </g>
          <path class="cls-5" d="M230.82,193.66c-.11-.12-.26-.25-.44-.41-1.76-1.6-5.88-5.36-5.24-14.1.54-7.4,3.27-9.95,5.47-12,1.64-1.53,2.73-2.55,3.18-5.99,1.37-10.53-4.87-14.55-6.81-15.53l2.71-5.36c5.84,2.95,11.55,10.19,10.06,21.66-.73,5.58-3.11,7.81-5.03,9.6-1.79,1.67-3.21,3-3.58,8.05-.43,5.83,1.81,7.88,3.3,9.23.7.63,1.42,1.29,1.75,2.32l-5.71,1.84c.14.44.35.68.36.69Z"/>
          <path class="cls-5" d="M257.35,194.91c-.11-.12-.26-.25-.44-.41-1.76-1.6-5.88-5.36-5.24-14.1.54-7.4,3.27-9.95,5.47-12,1.64-1.53,2.73-2.55,3.18-5.99,1.37-10.53-4.87-14.55-6.81-15.53l2.71-5.36c5.84,2.95,11.55,10.19,10.06,21.66-.73,5.58-3.11,7.81-5.03,9.6-1.79,1.67-3.21,3-3.58,8.05-.43,5.83,1.81,7.87,3.3,9.23.7.63,1.42,1.29,1.75,2.32l-5.71,1.84c.14.44.35.68.36.69Z"/>
        </g>
      </g>
    </g>
  </g>
  <text class="cls-3" transform="translate(91.08 231.68) rotate(-82.44)"><tspan x="0" y="0">S</tspan></text>
  <text class="cls-3" transform="translate(97.07 186.1) rotate(-63.12)"><tspan x="0" y="0">N</tspan></text>
  <text class="cls-3" transform="translate(122.62 138.42) rotate(-43.92)"><tspan x="0" y="0">A</tspan></text>
  <text class="cls-3" transform="translate(156.56 106.35) rotate(-26.3)"><tspan x="0" y="0">C</tspan></text>
  <text class="cls-3" transform="translate(199.8 85.47) rotate(-7.91)"><tspan x="0" y="0">K</tspan></text>
  <text class="cls-3" transform="translate(248.09 79.39) rotate(9.17)"><tspan x="0" y="0">T</tspan></text>
  <text class="cls-3" transform="translate(291.7 85.94) rotate(27.41)"><tspan x="0" y="0">O</tspan></text>
  <text class="cls-3" transform="translate(340.39 112.51) rotate(46.95)"><tspan x="0" y="0">P</tspan></text>
  <text class="cls-3" transform="translate(372.75 150.03) rotate(61.6)"><tspan x="0" y="0">I</tspan></text>
  <text class="cls-3" transform="translate(386.46 173.85) rotate(76.18)"><tspan x="0" y="0">A</tspan></text>
  <text class="cls-3" transform="translate(395.8 220.89) rotate(89.06)"><tspan x="0" y="0"> </tspan></text>
  <text class="cls-4" transform="translate(139.73 399.7) rotate(28.57) scale(.92 1)"><tspan x="0" y="0">E</tspan></text>
  <text class="cls-4" transform="translate(166.74 413.79) rotate(19.8) scale(.92 1)"><tspan x="0" y="0">S</tspan></text>
  <text class="cls-4" transform="translate(194.95 423.45) rotate(11.44) scale(.92 1)"><tspan x="0" y="0">T</tspan></text>
  <text class="cls-4" transform="translate(219.27 428.06) rotate(6.14) scale(.92 1)"><tspan x="0" y="0">.</tspan></text>
  <text class="cls-4" transform="translate(237.61 429.73) rotate(1.64) scale(.92 1)"><tspan x="0" y="0"> </tspan></text>
  <text class="cls-4" transform="translate(252.36 430.19) rotate(-4.45) scale(.92 1)"><tspan x="0" y="0">2</tspan></text>
  <text class="cls-4" transform="translate(281.73 427.39) rotate(-12.87) scale(.92 1)"><tspan x="0" y="0">0</tspan></text>
  <text class="cls-4" transform="translate(310.44 420.29) rotate(-21.47) scale(.92 1)"><tspan x="0" y="0">2</tspan></text>
  <text class="cls-4" transform="translate(337.81 408.94) rotate(-30.28) scale(.92 1)"><tspan x="0" y="0">5</tspan></text>
</svg>