<?xml version="1.0" encoding="UTF-8"?>
<svg id="Layer_2" data-name="Layer 2" xmlns="http://www.w3.org/2000/svg" viewBox="0 0 448 486.24">
  <defs>
    <style>
      .cls-1 {
        fill: #b99554;
      }

      .cls-1, .cls-2, .cls-3, .cls-4, .cls-5, .cls-6, .cls-7, .cls-8, .cls-9, .cls-10, .cls-11 {
        stroke-miterlimit: 10;
      }

      .cls-1, .cls-2, .cls-3, .cls-4, .cls-5, .cls-6, .cls-7, .cls-8, .cls-11 {
        stroke: #231f20;
      }

      .cls-1, .cls-2, .cls-4, .cls-5, .cls-6, .cls-7, .cls-8, .cls-11 {
        stroke-width: 6px;
      }

      .cls-12 {
        font-size: 24.84px;
      }

      .cls-12, .cls-13 {
        font-family: SourceSansPro-Bold, 'Source Sans Pro';
        font-weight: 700;
      }

      .cls-12, .cls-5 {
        fill: #231f20;
      }

      .cls-2 {
        fill: #f2d4a7;
      }

      .cls-3 {
        stroke-width: 9px;
      }

      .cls-3, .cls-14 {
        fill: #e44a4d;
      }

      .cls-4 {
        fill: #f1d4a8;
      }

      .cls-13 {
        fill: #e76331;
        font-size: 75.94px;
      }

      .cls-15 {
        fill: #00a5c3;
      }

      .cls-16 {
        fill: #00a9ca;
      }

      .cls-17 {
        fill: #ea5b32;
      }

      .cls-6 {
        fill: #802928;
      }

      .cls-7 {
        fill: #efd4a8;
      }

      .cls-8 {
        fill: #f1d4a7;
      }

      .cls-9 {
        fill: #f9c562;
      }

      .cls-9, .cls-10 {
        stroke: #6e4023;
        stroke-width: 2px;
      }

      .cls-18 {
        fill: #81b946;
      }

      .cls-19 {
        fill: #00a7c7;
      }

      .cls-10 {
        fill: #f6e4c8;
      }

      .cls-11 {
        fill: none;
      }

      .cls-20 {
        fill: #eb642c;
      }
    </style>
  </defs>
  <g id="Layer_1" data-name="Layer 1">
    <g>
      <ellipse class="cls-9" cx="224" cy="222" rx="223" ry="221"/>
      <ellipse class="cls-10" cx="224" cy="222" rx="148.67" ry="147.33"/>
      <g>
        <g>
          <path class="cls-15" d="M47.28,235.12c5.07,4.74,9.24,7.18,15.74,9.21-12.88,2.84-20.45,13.25-21.83,27.69-1.61-14.23-9.69-24.46-21.83-28.19,13.7-2.4,20.81-11.43,21.39-27.63,2.96,6.45,1.71,13.17,6.53,18.92Z"/>
          <path class="cls-20" d="M402.83,326.56c-12.73,1.76-16.27,14.4-19.51,26.28-1.2-14.37-8.6-24.86-21.51-27.03,13.74-2.06,20.2-12.39,21.84-27.42,1.04,14.7,7.06,24.43,21.07,27-1.02.68-1.33.89-1.9,1.17Z"/>
          <path class="cls-15" d="M406.07,242.59c1.54,9.99,7.7,13.81,15.4,15.98-10.12,2.73-16.3,9.13-16.32,22.36-4.89-19.81-7.67-18.37-17.16-22.72,11.05-.85,14.84-10.87,17.06-21.58.32,1.89.63,3.77,1.02,5.96Z"/>
          <path class="cls-16" d="M307.75,164.52c.66-2.3,1.22-4.33,1.9-6.76,1.64,6.44,4.33,10.4,9.68,12.68-4.54,2.24-8.03,6.53-9.54,12.06-1.62-6.02-4.75-9.61-9.88-12.39,3.16-.74,6.12-1.84,7.84-5.59Z"/>
          <path class="cls-17" d="M286.99,118.78c-6.7,1.97-9.2,7.92-10.31,15.06-1.7-8.36-5.05-13.25-12.35-15.84,7.01-.85,10.88-5.1,11.89-12.8,1.62,7.06,6.39,10.8,10.77,13.58Z"/>
          <path class="cls-20" d="M87.71,326.56c-12.73,1.76-16.27,14.4-19.51,26.28-1.2-14.37-8.6-24.86-21.51-27.03,13.74-2.06,20.2-12.39,21.84-27.42,1.04,14.7,7.06,24.43,21.07,27-1.02.68-1.33.89-1.9,1.17Z"/>
        </g>
        <g>
          <g>
            <path class="cls-7" d="M126.4,258.92c.72-3.27,9.78-9.98,10.55-9.75.62.18,4.53,6.77,12.82,10.71,15.8,7.51,18.31,2.29,18.41,3.02.33,2.58,2.98,20.21,2.08,20.1-10.75,2.44-40.17-13.32-43.86-24.07Z"/>
            <path class="cls-7" d="M310.1,248.62c-9.87-12.91-22.95,6.68-17.98-21.94,1.07-6.84,30.35-.99,34.84,16.84,10.31,36.91-18.73,67.11-47.8,58.44.33-1.99,5.47-11.86,6.29-15.3.48-2.01,11.83.3,17.43-3.66,9.75-7.06,13.16-24.32,7.23-34.38Z"/>
            <path class="cls-7" d="M260.89,340.54c-14.52-16.75-16.97-8.57,2.81-19.97,2.2-.7,13.15,9.31,14.21,10.88,5.95,6.59-9.56,36.21-18.86,28.1-3.88-3.05-3.67-10.93,1.85-19.01Z"/>
            <path class="cls-7" d="M183.96,341.32c1.95,1.15,9.16-23.14,9.92-22.02,3.16,4.63,14.49,6.63,13.7,9.84-1.09,4.46-7.94,14.69-11.78,27.42-1.25,4.15-9.79,3.75-18.32,1.07-17.7-6.33-12.74-28.77,6.47-16.32Z"/>
            <path class="cls-4" d="M178.8,303.66c28.77,46.21,100.58,31.84,108.16-23.93,2.35-14.32,7.7-57.63,3.82-70.47-10.34-18.03-51.3-16.08-64.79-16.4-12.95.5-51.15-1.25-56.95,19.44-3.65,11-2.3,74.03,9.76,91.36Z"/>
            <path class="cls-8" d="M170.96,207.2c-2.02-19.83,121.38-17.67,118.75,2.09,2.02,19.83-121.38,17.66-118.75-2.09Z"/>
            <path class="cls-6" d="M179.15,214.56c4.13-12.32,101.77-10.91,101.69,1.4-1.78,7.9-102.08,7.7-101.69-1.4Z"/>
            <g>
              <path class="cls-5" d="M197.3,259.89c0-3.83,1.86-7,3.54-7.41.8-.19,3.09,2.31,3.45,5.27.33,2.72-.86,6.25-1.77,6.94-2.29,1.76-5.23-2.72-5.23-4.81Z"/>
              <path class="cls-5" d="M249.65,258.7c-.52-6.3,7.64-9.05,7.43.13,0,7.75-8.69,9.19-7.43-.13Z"/>
              <path class="cls-5" d="M218.77,282.93c-.94-1.39-2.12-4.23-2.25-6.38-.05-.91-.26-2.31-.17-2.65.11-.41,1.1.11,1.31.16,2,.5,5.79,2.11,8.57,2.52,6.37.95,8.01-.77,9.26-1.23.25-.09,2.38-1.62,2.3-1.29-.26,1.07-.95,6.18-2.56,8.51-2.03,2.95-5.34,4.36-8.5,4.37-2.53,0-5.93-1.01-7.96-4.02Z"/>
            </g>
            <g>
              <path class="cls-1" d="M169.58,216.23c.1-.21,0-.48-.23-.51-4.74-.68-54.92-8.73-54.89-8.59,0,0,10.68,59.85,17.03,78.76.58,1.72,3.02,1.89,3.8.2,8.18-17.69,34.29-69.87,34.29-69.87Z"/>
              <g>
                <g>
                  <path class="cls-3" d="M181.42,177.41c10.15,10.91,3.94,37.34-13.32,36.55-2.96-.56-7.9-1.67-13.4-2.93-8.81-1.79-26.66-5.46-26.74-5.64-1.52-3.77.34-16.86,2.04-24.65.94-4.87,2.78-10.06,5.02-15.06,2.34-5.63,4.73-9.78,7.2-13.45,2.48-3.96,4.91-7.29,6.91-9.58.23-.32.46-.64.69-.97.1-.25.24-.45.42-.6.07-.1.13-.19.2-.28.11,0,.21,0,.32,0,.79-.28,1.92-.16,3.16.13,13.79,1.54,25.33,15.67,27.02,30.95-1.77-37.09-55.28-45.05-66.15-8.51-16.3,7.1-14.73,36.82,2.87,40.65,3.77.98,42.7,8.91,46.07,9.78,18.18,5.45,30.94-22.67,17.67-36.37Z"/>
                  <path class="cls-3" d="M180.89,176.85c.19.18.35.37.53.56-.1-.1-.18-.21-.28-.31.07-1.75,0-3.5-.19-5.24.08,1.61.07,3.27-.06,4.99Z"/>
                </g>
                <g>
                  <g>
                    <path class="cls-14" d="M179.91,177.4c9.87,10.67,3.83,36.51-12.95,35.74-2.87-.55-7.68-1.64-13.02-2.87-8.57-1.75-25.92-5.34-26-5.51-1.47-3.68.33-16.49,1.99-24.1.92-4.76,2.7-9.83,4.88-14.72,2.27-5.5,4.6-9.56,7-13.15,2.41-3.87,4.77-7.13,6.72-9.37.22-.31.45-.63.67-.95.09-.24.23-.44.41-.59.06-.09.13-.18.19-.28.1,0,.21,0,.31,0,.77-.27,1.87-.16,3.07.12,13.41,1.5,24.63,15.32,26.27,30.26-1.72-36.27-53.75-44.05-64.31-8.32-15.85,6.94-14.32,36.01,2.79,39.75,3.66.95,41.52,8.71,44.8,9.56,17.68,5.33,30.08-22.17,17.18-35.57Z"/>
                    <path class="cls-14" d="M179.4,176.85c.18.17.34.36.52.54-.09-.1-.18-.21-.27-.31.07-1.71,0-3.42-.18-5.12.07,1.58.06,3.2-.06,4.88Z"/>
                  </g>
                  <path class="cls-18" d="M129.89,180.92c6.27-23.34,12.98-29.31,20.24-39.94,16.7-.78,31.11,17.84,30.32,36.25,10.43,10.7,5.29,36.85-12.92,36.85-8.02-1.53-30.8-7.21-39.27-8.58-1.76-3.28-.07-16.56,1.63-24.58Z"/>
                  <path class="cls-19" d="M129.74,181.14c1.2-6.24,4.49-14.9,8.44-22.36,5.06-9.56,10.87-17.38,11.38-18.17.02-.04.05-.02.1-.02.12,0,1.08.17,1.47.23.16.03,2.11.23,2.15.23.06,0,1.99.29,3.56.67.34.08,1.23.35,1.24.36.04.05.13.83.15,1,1.47,11.57,2.55,27.51,2.44,39.11-.17,4.02-.55,30.24-3.86,29.57-7.18-1.46-29.03-6.02-29.11-6.22-1.5-3.76.36-16.61,2.05-24.4Z"/>
                </g>
              </g>
            </g>
            <path class="cls-2" d="M114.7,253.82c.64-8.47-.88-13.36,7.29-14.53,8.5-1.22,17.2,4.08,16.28,13.98-.63,6.8-14.34,11.44-15.81,16.93-1.91,3.59-7.87-14.98-7.76-16.38Z"/>
          </g>
          <path class="cls-11" d="M208.32,126.95c4.08,2.06,9.85,7.76,8.43,18.6-1.26,9.64-7.77,6.11-8.63,17.82-.69,9.41,4.79,11.48,5.18,12.69"/>
          <path class="cls-11" d="M234.86,128.2c4.08,2.06,9.85,7.76,8.43,18.6-1.26,9.64-7.77,6.11-8.63,17.82-.69,9.41,4.79,11.48,5.18,12.69"/>
        </g>
      </g>
    </g>
  </g>
  <text class="cls-13" transform="translate(70.83 215.32) rotate(-82.44)"><tspan x="0" y="0">S</tspan></text>
  <text class="cls-13" transform="translate(76.82 169.74) rotate(-63.12)"><tspan x="0" y="0">N</tspan></text>
  <text class="cls-13" transform="translate(102.37 122.06) rotate(-43.92)"><tspan x="0" y="0">A</tspan></text>
  <text class="cls-13" transform="translate(136.31 89.99) rotate(-26.3)"><tspan x="0" y="0">C</tspan></text>
  <text class="cls-13" transform="translate(179.55 69.11) rotate(-7.91)"><tspan x="0" y="0">K</tspan></text>
  <text class="cls-13" transform="translate(227.84 63.03) rotate(9.17)"><tspan x="0" y="0">T</tspan></text>
  <text class="cls-13" transform="translate(271.45 69.58) rotate(27.41)"><tspan x="0" y="0">O</tspan></text>
  <text class="cls-13" transform="translate(320.14 96.15) rotate(46.95)"><tspan x="0" y="0">P</tspan></text>
  <text class="cls-13" transform="translate(352.5 133.67) rotate(61.6)"><tspan x="0" y="0">I</tspan></text>
  <text class="cls-13" transform="translate(366.21 157.48) rotate(76.18)"><tspan x="0" y="0">A</tspan></text>
  <text class="cls-13" transform="translate(375.55 204.53) rotate(89.06)"><tspan x="0" y="0"> </tspan></text>
  <text class="cls-12" transform="translate(84.11 365.43) rotate(35.8) scale(.7 1)"><tspan x="0" y="0">W</tspan></text>
  <text class="cls-12" transform="translate(97.47 374.9) rotate(34.24) scale(.7 1)"><tspan x="0" y="0">h</tspan></text>
  <text class="cls-12" transform="translate(107.52 381.58) rotate(30.62) scale(.7 1)"><tspan x="0" y="0">e</tspan></text>
  <text class="cls-12" transform="translate(117.23 387.24) rotate(27.83) scale(.7 1)"><tspan x="0" y="0">r</tspan></text>
  <text class="cls-12" transform="translate(125.16 391.4) rotate(25.09) scale(.7 1)"><tspan x="0" y="0">e</tspan></text>
  <text class="cls-12" transform="translate(135.32 396.05) rotate(22.78) scale(.7 1)"><tspan x="0" y="0"> </tspan></text>
  <text class="cls-12" transform="translate(140.5 398.23) rotate(20.48) scale(.7 1)"><tspan x="0" y="0">e</tspan></text>
  <text class="cls-12" transform="translate(151 402.09) rotate(17.43) scale(.7 1)"><tspan x="0" y="0">v</tspan></text>
  <text class="cls-12" transform="translate(161.76 405.41) rotate(14.39) scale(.7 1)"><tspan x="0" y="0">e</tspan></text>
  <text class="cls-12" transform="translate(172.65 408.12) rotate(11.66) scale(.7 1)"><tspan x="0" y="0">r</tspan></text>
  <text class="cls-12" transform="translate(181.73 409.97) rotate(8.92) scale(.7 1)"><tspan x="0" y="0">y</tspan></text>
  <text class="cls-12" transform="translate(192.8 411.61) rotate(6.72) scale(.7 1)"><tspan x="0" y="0"> </tspan></text>
  <text class="cls-12" transform="translate(198.36 412.29) rotate(4.42) scale(.7 1)"><tspan x="0" y="0">b</tspan></text>
  <text class="cls-12" transform="translate(210.48 413.12) rotate(1.96) scale(.7 1)"><tspan x="0" y="0">i</tspan></text>
  <text class="cls-12" transform="translate(217.38 413.33) rotate(-.04) scale(.7 1)"><tspan x="0" y="0">t</tspan></text>
  <text class="cls-12" transform="translate(225.9 413.31) rotate(-2.5) scale(.7 1)"><tspan x="0" y="0">e</tspan></text>
  <text class="cls-12" transform="translate(237 412.74) rotate(-4.6) scale(.7 1)"><tspan x="0" y="0"> </tspan></text>
  <text class="cls-12" transform="translate(242.51 412.29) rotate(-6.38) scale(.7 1)"><tspan x="0" y="0">t</tspan></text>
  <text class="cls-12" transform="translate(250.96 411.33) rotate(-8.82) scale(.7 1)"><tspan x="0" y="0">a</tspan></text>
  <text class="cls-12" transform="translate(262.21 409.53) rotate(-11.7) scale(.7 1)"><tspan x="0" y="0">k</tspan></text>
  <text class="cls-12" transform="translate(273.24 407.2) rotate(-14.46) scale(.7 1)"><tspan x="0" y="0">e</tspan></text>
  <text class="cls-12" transform="translate(284.1 404.33) rotate(-17.12) scale(.7 1)"><tspan x="0" y="0">s</tspan></text>
  <text class="cls-12" transform="translate(293.42 401.38) rotate(-19.07) scale(.7 1)"><tspan x="0" y="0"> </tspan></text>
  <text class="cls-12" transform="translate(298.73 399.56) rotate(-21.22) scale(.7 1)"><tspan x="0" y="0">y</tspan></text>
  <text class="cls-12" transform="translate(309.14 395.47) rotate(-24.22) scale(.7 1)"><tspan x="0" y="0">o</tspan></text>
  <text class="cls-12" transform="translate(320.05 390.49) rotate(-27.48) scale(.7 1)"><tspan x="0" y="0">u</tspan></text>
  <text class="cls-12" transform="translate(330.68 384.84) rotate(-29.92) scale(.7 1)"><tspan x="0" y="0"> </tspan></text>
  <text class="cls-12" transform="translate(335.6 382.03) rotate(-32.46) scale(.7 1)"><tspan x="0" y="0">b</tspan></text>
  <text class="cls-12" transform="translate(345.82 375.45) rotate(-35.95) scale(.7 1)"><tspan x="0" y="0">a</tspan></text>
  <text class="cls-12" transform="translate(355.08 368.63) rotate(-39.37) scale(.7 1)"><tspan x="0" y="0">c</tspan></text>
  <text class="cls-12" transform="translate(363.18 361.91) rotate(-43.06) scale(.7 1)"><tspan x="0" y="0">k</tspan></text>
</svg>